<svg width="100" height="100" viewBox="0 0 100 100" fill="none" xmlns="http://www.w3.org/2000/svg">
<path d="M76.4334 36.2917C73.4876 36.2917 71.1042 38.675 71.1042 41.6167V60.4917C71.1042 61.9051 71.6657 63.2606 72.6651 64.26C73.6645 65.2594 75.02 65.8209 76.4334 65.8209C77.8468 65.8209 79.2023 65.2594 80.2017 64.26C81.2011 63.2606 81.7626 61.9051 81.7626 60.4917V41.6167C81.7626 38.675 79.3792 36.2917 76.4334 36.2917V36.2917ZM23.5667 36.2917C20.6209 36.2917 18.2375 38.675 18.2375 41.6167V60.4917C18.2375 61.9051 18.799 63.2606 19.7984 64.26C20.7978 65.2594 22.1533 65.8209 23.5667 65.8209C24.9801 65.8209 26.3356 65.2594 27.335 64.26C28.3344 63.2606 28.8959 61.9051 28.8959 60.4917V41.6167C28.8964 40.9169 28.7589 40.2239 28.4913 39.5773C28.2236 38.9307 27.831 38.3433 27.336 37.8487C26.841 37.354 26.2532 36.9619 25.6064 36.6947C24.9596 36.4276 24.2665 36.2906 23.5667 36.2917V36.2917ZM60.6042 20.4209L63.8042 14.6375C63.8978 14.4729 63.9576 14.2913 63.9804 14.1033C64.0031 13.9153 63.9883 13.7247 63.9367 13.5424C63.8852 13.3602 63.7979 13.1901 63.68 13.0419C63.5622 12.8937 63.416 12.7704 63.2501 12.6792C63.0846 12.5859 62.9022 12.5264 62.7136 12.5042C62.5249 12.482 62.3337 12.4975 62.1511 12.5499C61.9685 12.6022 61.7981 12.6903 61.6499 12.8091C61.5016 12.9279 61.3785 13.0749 61.2876 13.2417L58.0001 19.1584C55.5501 18.1792 52.8501 17.625 50.0001 17.625C47.1501 17.625 44.4501 18.175 42.0001 19.1542L38.7126 13.2459C38.6216 13.0791 38.4985 12.932 38.3502 12.8133C38.202 12.6945 38.0316 12.6064 37.849 12.554C37.6664 12.5017 37.4752 12.4862 37.2865 12.5084C37.0979 12.5306 36.9155 12.5901 36.75 12.6834C36.5849 12.7754 36.4396 12.8991 36.3223 13.0474C36.2051 13.1957 36.1182 13.3657 36.0667 13.5476C36.0153 13.7295 36.0002 13.9197 36.0223 14.1075C36.0445 14.2952 36.1035 14.4768 36.1959 14.6417L39.3959 20.425C33.6334 23.7084 29.7834 29.5792 29.7834 36.2917C29.7834 36.3375 29.7834 36.3792 29.7917 36.4334C29.7834 36.4584 29.7834 36.4875 29.7834 36.5125V36.5167H70.2126V36.2917C70.2167 29.5792 66.3667 23.7125 60.6042 20.4209V20.4209ZM40.6667 28.6209C40.4771 28.6195 40.2897 28.5808 40.115 28.507C39.9404 28.4332 39.782 28.3257 39.6489 28.1906C39.3801 27.9179 39.2306 27.5496 39.2334 27.1667C39.2361 26.7838 39.3909 26.4177 39.6636 26.1489C39.9363 25.8801 40.3046 25.7306 40.6876 25.7334C41.0705 25.7361 41.4366 25.8909 41.7054 26.1636C41.9742 26.4363 42.1236 26.8046 42.1209 27.1875C42.1181 27.5704 41.9634 27.9366 41.6907 28.2054C41.4179 28.4742 41.0496 28.6236 40.6667 28.6209ZM59.3334 28.6209C58.97 28.5932 58.6304 28.4293 58.3826 28.162C58.1349 27.8947 57.9972 27.5437 57.9972 27.1792C57.9972 26.8147 58.1349 26.4637 58.3826 26.1964C58.6304 25.9291 58.97 25.7652 59.3334 25.7375C59.7157 25.7375 60.0824 25.8894 60.3528 26.1598C60.6232 26.4301 60.7751 26.7968 60.7751 27.1792C60.7751 27.5615 60.6232 27.9282 60.3528 28.1986C60.0824 28.469 59.7157 28.6209 59.3334 28.6209V28.6209ZM29.7834 67.1667C29.7834 69.8584 31.9709 72.0459 34.675 72.0459H37.1167V82.05C37.1167 83.4634 37.6782 84.8189 38.6776 85.8183C39.677 86.8177 41.0325 87.3792 42.4459 87.3792C43.8593 87.3792 45.2148 86.8177 46.2142 85.8183C47.2136 84.8189 47.775 83.4634 47.7751 82.05V72.0459H52.2167V82.05C52.2167 84.9959 54.6001 87.375 57.5376 87.375C60.4917 87.375 62.8751 84.9959 62.8751 82.05V72.0459H65.3167C68.0167 72.0459 70.2084 69.8625 70.2084 67.1667V37.6167H29.7834V67.1667Z" fill="#2E474D"/>
</svg>
