<svg width="100" height="100" viewBox="0 0 100 100" fill="none" xmlns="http://www.w3.org/2000/svg">
<path d="M81.9374 70.046C80.7837 72.7356 79.3582 75.3003 77.6833 77.7002C75.4458 80.896 73.6083 83.1043 72.1999 84.3335C70.0124 86.3418 67.6624 87.3752 65.1499 87.4335C63.3499 87.4335 61.1749 86.921 58.6416 85.8793C56.0999 84.8418 53.7666 84.3335 51.6291 84.3335C49.3916 84.3335 46.9916 84.8418 44.4208 85.8793C41.8541 86.921 39.7791 87.4668 38.1916 87.5168C35.7874 87.621 33.3833 86.5627 30.9874 84.3335C29.4583 83.0002 27.5458 80.7085 25.2499 77.4668C22.7916 74.0127 20.7708 69.9919 19.1874 65.421C17.4916 60.4752 16.6416 55.6918 16.6416 51.0585C16.6416 45.7543 17.7874 41.1752 20.0833 37.3418C21.8197 34.3313 24.3022 31.8187 27.2916 30.046C30.2394 28.278 33.6045 27.326 37.0416 27.2877C38.9583 27.2877 41.4708 27.8793 44.5833 29.046C47.6958 30.2127 49.6958 30.8043 50.5666 30.8043C51.2249 30.8043 53.4374 30.1085 57.2041 28.7293C60.7583 27.4502 63.7583 26.921 66.2166 27.1293C72.8833 27.6668 77.8874 30.2918 81.2166 35.0252C75.2583 38.6377 72.3124 43.6919 72.3708 50.1794C72.4208 55.2335 74.2583 59.4377 77.8583 62.7752C79.4498 64.2982 81.3068 65.517 83.3374 66.371C82.8958 67.6502 82.4291 68.871 81.9374 70.046V70.046ZM66.6583 9.91685C66.6583 13.8752 65.2083 17.5752 62.3291 20.996C58.8458 25.0627 54.6374 27.4168 50.0749 27.046C50.0153 26.5483 49.986 26.0473 49.9874 25.546C49.9874 21.7418 51.6374 17.6752 54.5833 14.346C56.0499 12.6627 57.9166 11.2585 60.1791 10.1418C62.4374 9.04185 64.5708 8.43351 66.5791 8.32935C66.6333 8.86268 66.6583 9.39185 66.6583 9.91685V9.91685Z" fill="#2E474D"/>
</svg>
